:FULLY-SPECIFIED
:FORCE-ALL-JOINTS-BE-3DOF
:DEGREES
476
root 3.65475 16.3232 -7.15258 4.98239 60.0615 -6.32466
lfemur -39.0841 -2.2813 -22.0579
ltibia 49.2825 0 0
lfoot -20.2347 0.707293 0
ltoes 16.8201 0 0
rfemur -21.9032 2.47303 9.55013
rtibia 71.0523 0 0
rfoot 25.3477 15.05 0
rtoes -26.3982 0 0
lowerback 2.19224 -0.00620033 1.41311
upperback -0.344654 0.054699 1.24612
thorax -1.58159 0.0226726 0.483098
lowerneck -8.46574 -6.91062 0.425654
upperneck 3.45527 -9.34793 1.4527
head 2.61246 -4.59087 -0.061515
lclavicle -3.06755e-14 5.66123e-15 0
lhumerus -48.7804 -27.2681 108.181
lradius 56.1429 0 0
lwrist 5.13143 0 0
lhand -9.04136 -5.96905 0
lfingers 7.12502 0 0
lthumb 16.9055 23.3001 0
rclavicle -3.06755e-14 5.66123e-15 0
rhumerus -55.058 2.54872 -83.7791
rradius 62.6788 0 0
rwrist 14.9031 0 0
rhand -28.9456 -26.5874 0
rfingers 7.12502 0 0
rthumb -2.29911 -776.553 0
477
root 3.72699 16.3398 -7.10485 5.2707 61.1988 -5.82222
lfemur -38.3804 -3.12867 -22.3029
ltibia 48.8345 0 0
lfoot -20.3436 0.388466 0
ltoes 16.984 0 0
rfemur -24.1143 2.09429 9.51572
rtibia 72.8667 0 0
rfoot 24.527 14.3796 0
rtoes -25.6933 0 0
lowerback 2.256 -0.0520563 1.2209
upperback -0.345892 -0.013398 1.13903
thorax -1.61837 -0.0104615 0.483733
lowerneck -8.46859 -7.02339 0.330503
upperneck 3.62499 -9.49641 1.51767
head 2.68053 -4.66159 -0.03779
lclavicle -2.77004e-14 6.47707e-15 0
lhumerus -48.8817 -27.5665 108.464
lradius 56.2179 0 0
lwrist 5.16848 0 0
lhand -8.00571 -5.38444 0
lfingers 7.12502 0 0
lthumb 17.9015 23.7873 0
rclavicle -2.77004e-14 6.47707e-15 0
rhumerus -54.533 3.22047 -84.4756
rradius 62.8297 0 0
rwrist 15.5634 0 0
rhand -28.4815 -26.2461 0
rfingers 7.12502 0 0
rthumb -1.85091 -776.214 0
478
root 3.79922 16.3563 -7.05712 5.55901 62.336 -5.31978
lfemur -37.6766 -3.97604 -22.548
ltibia 48.3866 0 0
lfoot -20.4524 0.0696385 0
ltoes 17.1478 0 0
rfemur -26.3255 1.71555 9.48132
rtibia 74.6812 0 0
rfoot 23.7063 13.7092 0
rtoes -24.9884 0 0
lowerback 2.31975 -0.0979122 1.02869
upperback -0.347131 -0.081495 1.03195
thorax -1.65516 -0.0435956 0.484367
lowerneck -8.47145 -7.13617 0.235351
upperneck 3.7947 -9.64488 1.58264
head 2.74861 -4.73231 -0.014065
lclavicle -2.47254e-14 7.29292e-15 0
lhumerus -48.9831 -27.8649 108.748
lradius 56.2929 0 0
lwrist 5.20554 0 0
lhand -6.97006 -4.79983 0
lfingers 7.12502 0 0
lthumb 18.8974 24.2745 0
rclavicle -2.47254e-14 7.29292e-15 0
rhumerus -54.008 3.89222 -85.172
rradius 62.9805 0 0
rwrist 16.2237 0 0
rhand -28.0175 -25.9048 0
rfingers 7.12502 0 0
rthumb -1.40272 -775.876 0
479
root 3.87146 16.3728 -7.0094 5.84732 63.4732 -4.81735
lfemur -36.9729 -4.82341 -22.7931
ltibia 47.9387 0 0
lfoot -20.5613 -0.249189 0
ltoes 17.3117 0 0
rfemur -28.5366 1.33681 9.44691
rtibia 76.4956 0 0
rfoot 22.8856 13.0388 0
rtoes -24.2834 0 0
lowerback 2.38351 -0.143768 0.836477
upperback -0.348369 -0.149592 0.924864
thorax -1.69195 -0.0767298 0.485001
lowerneck -8.47431 -7.24895 0.1402
upperneck 3.96442 -9.79335 1.64762
head 2.81669 -4.80302 0.00965993
lclavicle -2.17504e-14 8.10876e-15 0
lhumerus -49.0844 -28.1633 109.031
lradius 56.3678 0 0
lwrist 5.24259 0 0
lhand -5.93442 -4.21523 0
lfingers 7.12502 0 0
lthumb 19.8934 24.7618 0
rclavicle -2.17504e-14 8.10876e-15 0
rhumerus -53.4831 4.56396 -85.8684
rradius 63.1313 0 0
rwrist 16.8841 0 0
rhand -27.5534 -25.5636 0
rfingers 7.12502 0 0
rthumb -0.954528 -775.538 0
480
root 3.9437 16.3894 -6.96167 6.13563 64.6105 -4.31491
lfemur -36.2692 -5.67078 -23.0381
ltibia 47.4907 0 0
lfoot -20.6702 -0.568016 0
ltoes 17.4756 0 0
rfemur -30.7477 0.958076 9.4125
rtibia 78.31 0 0
rfoot 22.0649 12.3684 0
rtoes -23.5785 0 0
lowerback 2.44727 -0.189624 0.644266
upperback -0.349608 -0.217689 0.81778
thorax -1.72873 -0.109864 0.485636
lowerneck -8.47716 -7.36172 0.0450489
upperneck 4.13413 -9.94183 1.71259
head 2.88476 -4.87373 0.0333849
lclavicle -1.87753e-14 8.92461e-15 0
lhumerus -49.1857 -28.4617 109.314
lradius 56.4427 0 0
lwrist 5.27964 0 0
lhand -4.89877 -3.63062 0
lfingers 7.12502 0 0
lthumb 20.8894 25.249 0
rclavicle -1.87753e-14 8.92461e-15 0
rhumerus -52.9581 5.23571 -86.5649
rradius 63.2822 0 0
rwrist 17.5444 0 0
rhand -27.0893 -25.2223 0
rfingers 7.12502 0 0
rthumb -0.506335 -775.199 0
481
root 4.01594 16.4059 -6.91395 6.42394 65.7477 -3.81247
lfemur -35.5655 -6.51815 -23.2832
ltibia 47.0428 0 0
lfoot -20.7791 -0.886843 0
ltoes 17.6395 0 0
rfemur -32.9589 0.579337 9.3781
rtibia 80.1245 0 0
rfoot 21.2442 11.698 0
rtoes -22.8736 0 0
lowerback 2.51103 -0.23548 0.452055
upperback -0.350846 -0.285786 0.710696
thorax -1.76552 -0.142998 0.48627
lowerneck -8.48002 -7.4745 -0.0501023
upperneck 4.30385 -10.0903 1.77756
head 2.95284 -4.94445 0.0571099
lclavicle -1.58003e-14 9.74045e-15 0
lhumerus -49.2871 -28.7601 109.598
lradius 56.5177 0 0
lwrist 5.31669 0 0
lhand -3.86313 -3.04602 0
lfingers 7.12502 0 0
lthumb 21.8854 25.7362 0
rclavicle -1.58003e-14 9.74045e-15 0
rhumerus -52.4331 5.90746 -87.2613
rradius 63.433 0 0
rwrist 18.2047 0 0
rhand -26.6253 -24.8811 0
rfingers 7.12502 0 0
rthumb -0.0581423 -774.861 0
482
root 4.08552 16.4165 -6.85978 6.62817 66.946 -3.38392
lfemur -34.8901 -7.33502 -23.3773
ltibia 46.7405 0 0
lfoot -20.908 -1.28909 0
ltoes 17.9042 0 0
rfemur -34.9459 0.434055 9.64778
rtibia 80.8314 0 0
rfoot 20.3422 9.86596 0
rtoes -21.2106 0 0
lowerback 2.63708 -0.278541 0.313451
upperback -0.32097 -0.348824 0.658406
thorax -1.80431 -0.173324 0.513996
lowerneck -8.48664 -7.58665 -0.15685
upperneck 4.43991 -10.2334 1.79931
head 3.01056 -5.0148 0.0691613
lclavicle -2.34625e-14 9.81434e-15 0
lhumerus -49.2495 -29.05 109.929
lradius 56.4183 0 0
lwrist 5.12009 0 0
lhand -2.86698 -2.62034 0
lfingers 7.12502 0 0
lthumb 22.8401 26.0305 0
rclavicle -2.34625e-14 9.81434e-15 0
rhumerus -51.9184 6.98035 -88.0716
rradius 64.1873 0 0
rwrist 18.8203 0 0
rhand -25.6463 -24.6261 0
rfingers 7.12502 0 0
rthumb 0.887283 -774.593 0
483
root 4.15511 16.4271 -6.80561 6.8324 68.1442 -2.95537
lfemur -34.2148 -8.1519 -23.4714
ltibia 46.4382 0 0
lfoot -21.0369 -1.69133 0
ltoes 18.1689 0 0
rfemur -36.933 0.288772 9.91747
rtibia 81.5383 0 0
rfoot 19.4403 8.03392 0
rtoes -19.5476 0 0
lowerback 2.76314 -0.321602 0.174846
upperback -0.291093 -0.411863 0.606116
thorax -1.8431 -0.203651 0.541723
lowerneck -8.49326 -7.69881 -0.263598
upperneck 4.57597 -10.3766 1.82106
head 3.06828 -5.08515 0.0812126
lclavicle -3.11246e-14 9.88823e-15 0
lhumerus -49.212 -29.3398 110.261
lradius 56.3189 0 0
lwrist 4.92348 0 0
lhand -1.87082 -2.19466 0
lfingers 7.12502 0 0
lthumb 23.7947 26.3248 0
rclavicle -3.11246e-14 9.88823e-15 0
rhumerus -51.4036 8.05324 -88.8819
rradius 64.9417 0 0
rwrist 19.4359 0 0
rhand -24.6673 -24.371 0
rfingers 7.12502 0 0
rthumb 1.83271 -774.326 0
484
root 4.22469 16.4377 -6.75144 7.03662 69.3425 -2.52682
lfemur -33.5394 -8.96878 -23.5655
ltibia 46.1359 0 0
lfoot -21.1658 -2.09357 0
ltoes 18.4336 0 0
rfemur -38.92 0.14349 10.1871
rtibia 82.2452 0 0
rfoot 18.5384 6.20188 0
rtoes -17.8846 0 0
lowerback 2.88919 -0.364663 0.036242
upperback -0.261216 -0.474901 0.553826
thorax -1.88189 -0.233977 0.569449
lowerneck -8.49988 -7.81096 -0.370346
upperneck 4.71204 -10.5197 1.84281
head 3.126 -5.1555 0.0932639
lclavicle -3.87868e-14 9.96213e-15 0
lhumerus -49.1744 -29.6296 110.592
lradius 56.2195 0 0
lwrist 4.72688 0 0
lhand -0.87467 -1.76898 0
lfingers 7.12502 0 0
lthumb 24.7494 26.6191 0
rclavicle -3.87868e-14 9.96213e-15 0
rhumerus -50.8889 9.12613 -89.6923
rradius 65.696 0 0
rwrist 20.0514 0 0
rhand -23.6883 -24.116 0
rfingers 7.12502 0 0
rthumb 2.77813 -774.058 0
485
root 4.29427 16.4483 -6.69726 7.24085 70.5408 -2.09828
lfemur -32.864 -9.78565 -23.6596
ltibia 45.8335 0 0
lfoot -21.2948 -2.49581 0
ltoes 18.6983 0 0
rfemur -40.907 -0.00179233 10.4568
rtibia 82.9521 0 0
rfoot 17.6364 4.36984 0
rtoes -16.2215 0 0
lowerback 3.01524 -0.407724 -0.102362
upperback -0.23134 -0.537939 0.501536
thorax -1.92067 -0.264303 0.597176
lowerneck -8.5065 -7.92311 -0.477094
upperneck 4.8481 -10.6628 1.86456
head 3.18372 -5.22586 0.105315
lclavicle -4.6449e-14 1.0036e-14 0
lhumerus -49.1368 -29.9195 110.923
lradius 56.1202 0 0
lwrist 4.53028 0 0
lhand 0.121483 -1.3433 0
lfingers 7.12502 0 0
lthumb 25.7041 26.9133 0
rclavicle -4.6449e-14 1.0036e-14 0
rhumerus -50.3741 10.199 -90.5026
rradius 66.4503 0 0
rwrist 20.667 0 0
rhand -22.7094 -23.861 0
rfingers 7.12502 0 0
rthumb 3.72356 -773.791 0
486
root 4.36386 16.4589 -6.64309 7.44508 71.739 -1.66973
lfemur -32.1887 -10.6025 -23.7537
ltibia 45.5312 0 0
lfoot -21.4237 -2.89806 0
ltoes 18.963 0 0
rfemur -42.8941 -0.147075 10.7265
rtibia 83.659 0 0
rfoot 16.7344 2.5378 0
rtoes -14.5585 0 0
lowerback 3.1413 -0.450785 -0.240967
upperback -0.201463 -0.600978 0.449246
thorax -1.95946 -0.29463 0.624902
lowerneck -8.51312 -8.03527 -0.583842
upperneck 4.98416 -10.806 1.88631
head 3.24144 -5.29621 0.117367
lclavicle -5.41111e-14 1.01099e-14 0
lhumerus -49.0993 -30.2094 111.255
lradius 56.0208 0 0
lwrist 4.33367 0 0
lhand 1.11764 -0.917624 0
lfingers 7.12502 0 0
lthumb 26.6587 27.2076 0
rclavicle -5.41111e-14 1.01099e-14 0
rhumerus -49.8593 11.2719 -91.3129
rradius 67.2047 0 0
rwrist 21.2826 0 0
rhand -21.7304 -23.6059 0
rfingers 7.12502 0 0
rthumb 4.66898 -773.524 0
487
root 4.43344 16.4695 -6.58892 7.64931 72.9373 -1.24118
lfemur -31.5133 -11.4194 -23.8478
ltibia 45.2289 0 0
lfoot -21.5526 -3.3003 0
ltoes 19.2277 0 0
rfemur -44.8811 -0.292357 10.9962
rtibia 84.3659 0 0
rfoot 15.8325 0.705758 0
rtoes -12.8955 0 0
lowerback 3.26735 -0.493846 -0.379571
upperback -0.171587 -0.664016 0.396956
thorax -1.99825 -0.324956 0.652629
lowerneck -8.51974 -8.14742 -0.69059
upperneck 5.12022 -10.9491 1.90806
head 3.29916 -5.36656 0.129418
lclavicle -6.17733e-14 1.01838e-14 0
lhumerus -49.0617 -30.4992 111.586
lradius 55.9214 0 0
lwrist 4.13707 0 0
lhand 2.11379 -0.491945 0
lfingers 7.12502 0 0
lthumb 27.6134 27.5019 0
rclavicle -6.17733e-14 1.01838e-14 0
rhumerus -49.3446 12.3448 -92.1232
rradius 67.959 0 0
rwrist 21.8982 0 0
rhand -20.7514 -23.3509 0
rfingers 7.12502 0 0
rthumb 5.61441 -773.256 0
